<svg width="336" height="299" viewBox="0 0 336 299" fill="none" xmlns="http://www.w3.org/2000/svg">
<path d="M128.216 266.64C117.976 266.64 113.24 259.216 112.344 254.736V256.912C112.344 262.416 108.376 266.384 103 266.384C97.624 266.384 93.656 262.416 93.656 256.912V185.616C93.656 180.24 97.624 176.272 103 176.272C108.376 176.272 112.344 180.24 112.344 185.616V209.168C113.24 204.688 118.744 197.264 128.856 197.264C140.12 197.264 147.8 204.944 147.8 219.024V244.88C147.8 258.96 139.352 266.64 128.216 266.64ZM121.176 250.512C126.04 250.512 129.112 247.056 129.112 241.552V222.352C129.112 216.848 126.04 213.392 121.176 213.392C115.16 213.392 112.344 217.744 112.344 223.888V240.016C112.344 246.16 115.16 250.512 121.176 250.512ZM182.699 266.64C165.163 266.64 154.795 256.912 154.795 240.656V223.248C154.795 206.992 164.779 197.264 181.675 197.264C198.187 197.264 208.555 206.48 208.555 223.248V224.784C208.555 232.72 204.075 236.688 196.395 236.688H172.843V242.448C172.843 248.08 176.171 251.28 182.699 251.28C186.795 251.28 190.123 249.104 191.787 245.776C193.451 242.448 195.883 240.528 199.723 240.528C203.819 240.528 207.787 243.472 207.787 248.464C207.787 252.304 205.867 255.632 203.947 257.936C199.595 263.184 192.043 266.64 182.699 266.64ZM172.843 221.456V223.632H190.507V221.456C190.507 215.824 187.563 212.624 181.675 212.624C175.787 212.624 172.843 215.824 172.843 221.456ZM225.85 266.384C220.474 266.384 216.506 262.416 216.506 256.912V206.864C216.506 201.488 220.474 197.52 225.85 197.52C231.226 197.52 235.194 201.488 235.194 206.864V209.168C236.09 204.688 241.21 197.264 251.322 197.264C260.154 197.264 266.042 201.872 268.602 209.168C270.266 203.792 275.386 197.264 286.266 197.264C297.53 197.264 305.082 204.944 305.082 219.024V256.912C305.082 262.416 301.114 266.384 295.738 266.384C290.362 266.384 286.394 262.416 286.394 256.912V222.352C286.394 216.848 283.45 213.392 278.586 213.392C272.698 213.392 270.138 217.616 270.138 223.888V256.912C270.138 262.416 266.17 266.384 260.794 266.384C255.418 266.384 251.45 262.416 251.45 256.912V222.352C251.45 216.848 248.506 213.392 243.642 213.392C237.626 213.392 235.194 217.744 235.194 223.888V256.912C235.194 262.416 231.226 266.384 225.85 266.384ZM321.846 266.256C315.446 266.256 310.454 261.52 310.454 255.12C310.454 248.848 315.446 244.112 321.846 244.112C328.246 244.112 333.238 248.848 333.238 255.12C333.238 261.52 328.246 266.256 321.846 266.256Z" fill="#F3FCF4"/>
<path d="M29.056 118.64C19.2 118.64 11.648 114.928 7.04 110.064C4.096 106.992 3.2 103.664 3.2 100.72C3.2 95.984 7.168 92.784 12.032 92.784C15.488 92.784 17.92 94.832 19.584 97.904C20.48 99.44 21.248 100.72 22.272 101.616C23.808 103.024 25.728 103.664 28.928 103.664C34.048 103.664 36.224 101.744 36.224 98.416C36.224 94.32 30.848 92.784 24.576 90.736C15.232 87.792 3.968 83.824 3.968 70.128C3.968 58.992 12.544 49.264 28.672 49.264C38.4 49.264 45.696 52.464 50.304 57.328C53.12 60.272 54.016 63.472 54.016 66.288C54.016 71.024 50.56 74.224 45.696 74.224C42.24 74.224 39.424 72.304 37.76 69.36C36.992 68.08 36.352 67.056 35.456 66.288C33.92 64.88 31.872 64.24 29.056 64.24C24.96 64.24 22.272 66.16 22.272 69.36C22.272 72.816 26.624 74.352 32.128 76.144C41.6 78.96 54.528 82.544 54.528 97.392C54.528 108.784 46.848 118.64 29.056 118.64ZM79.629 118.64C66.829 118.64 57.869 109.04 57.869 98.288C57.869 85.616 67.085 77.168 82.189 77.168H94.093V72.688C94.093 67.696 90.893 64.88 85.901 64.88C81.933 64.88 79.245 66.416 77.197 68.72C75.149 71.024 73.229 74.096 68.237 74.096C63.373 74.096 60.173 70.768 60.173 66.288C60.173 63.216 61.325 60.784 63.245 58.352C67.597 52.848 76.301 49.264 85.261 49.264C101.133 49.264 112.397 57.584 112.397 74.736V110.576C112.397 114.8 108.813 118.384 103.949 118.384C98.957 118.384 95.373 114.8 95.373 109.808V108.144C94.221 114.032 88.205 118.64 79.629 118.64ZM83.597 103.664C90.253 103.664 94.093 99.056 94.093 92.272V90.864H85.901C78.861 90.864 76.429 93.808 76.429 97.648C76.429 101.232 78.989 103.664 83.597 103.664ZM156.691 118.64C146.451 118.64 141.715 111.216 140.819 106.736V108.912C140.819 114.416 136.851 118.384 131.475 118.384C126.099 118.384 122.131 114.416 122.131 108.912V37.616C122.131 32.24 126.099 28.272 131.475 28.272C136.851 28.272 140.819 32.24 140.819 37.616V61.168C141.715 56.688 147.219 49.264 157.331 49.264C168.595 49.264 176.275 56.944 176.275 71.024V96.88C176.275 110.96 167.827 118.64 156.691 118.64ZM149.651 102.512C154.515 102.512 157.587 99.056 157.587 93.552V74.352C157.587 68.848 154.515 65.392 149.651 65.392C143.635 65.392 140.819 69.744 140.819 75.888V92.016C140.819 98.16 143.635 102.512 149.651 102.512ZM210.15 118.64C193.638 118.64 183.27 108.912 183.27 92.656V75.248C183.27 58.992 193.638 49.264 210.15 49.264C226.662 49.264 237.03 58.992 237.03 75.248V92.656C237.03 108.912 226.662 118.64 210.15 118.64ZM210.15 102.768C215.782 102.768 218.47 99.568 218.47 93.936V73.968C218.47 68.336 215.782 65.136 210.15 65.136C204.518 65.136 201.83 68.336 201.83 73.968V93.936C201.83 99.568 204.518 102.768 210.15 102.768ZM255.078 118.384C249.574 118.384 245.606 114.416 245.606 108.912V58.992C245.606 53.488 249.574 49.52 255.078 49.52C260.454 49.52 264.422 53.488 264.422 58.992V63.856C265.446 55.664 270.566 49.648 276.326 49.648C281.958 49.648 285.03 53.232 285.03 58.096C285.03 63.472 281.446 67.312 276.198 67.312C268.39 67.312 264.422 71.024 264.422 80.112V108.912C264.422 114.416 260.454 118.384 255.078 118.384Z" fill="#F3FCF4"/>
<path d="M78.472 192.64C64.52 192.64 58.12 183.552 58.12 171.008V145.024C58.12 131.968 65.544 123.264 77.96 123.264C89.992 123.264 93.32 131.456 93.576 135.168V111.616C93.576 106.24 97.544 102.272 102.92 102.272C108.296 102.272 112.264 106.24 112.264 111.616V182.912C112.264 188.416 108.296 192.384 102.92 192.384C97.544 192.384 93.576 188.416 93.576 182.912V180.864C93.32 184.704 89.352 192.64 78.472 192.64ZM85.128 176.64C91.144 176.64 93.576 172.928 93.576 167.296V148.608C93.576 142.848 91.144 139.392 85.128 139.392C80.264 139.392 76.808 142.336 76.808 148.352V167.68C76.808 173.568 80.264 176.64 85.128 176.64ZM147.675 192.64C131.163 192.64 120.795 182.912 120.795 166.656V149.248C120.795 132.992 131.163 123.264 147.675 123.264C164.187 123.264 174.555 132.992 174.555 149.248V166.656C174.555 182.912 164.187 192.64 147.675 192.64ZM147.675 176.768C153.307 176.768 155.995 173.568 155.995 167.936V147.968C155.995 142.336 153.307 139.136 147.675 139.136C142.043 139.136 139.355 142.336 139.355 147.968V167.936C139.355 173.568 142.043 176.768 147.675 176.768Z" fill="#F3FCF4"/>
<rect x="184" y="128" width="123" height="60" rx="20" fill="#F3FCF4"/>
<path d="M2 246.5V148.5C2 137.454 10.9543 128.5 22 128.5H28C39.0457 128.5 48 137.454 48 148.5V183.25C48 193.053 55.9469 201 65.75 201C75.5531 201 83.5 208.947 83.5 218.75V246.5C83.5 257.546 74.5457 266.5 63.5 266.5H22C10.9543 266.5 2 257.546 2 246.5Z" fill="#F3FCF4"/>
<ellipse cx="306.819" cy="45.95" rx="6.34276" ry="16.914" transform="rotate(60 306.819 45.95)" fill="#F3FCF4"/>
<ellipse cx="290.548" cy="30.0413" rx="6.34276" ry="16.914" transform="rotate(23.4404 290.548 30.0413)" fill="#F3FCF4"/>
</svg>
